<svg width="659" height="138" viewBox="0 0 659 138" fill="none" xmlns="http://www.w3.org/2000/svg">
<path d="M86.272 113H7.424V17.768H86.272H97.28C116.352 17.256 125.952 27.88 125.952 44.008C125.952 55.144 122.624 61.16 116.864 64.36C125.568 66.792 130.944 72.808 130.944 86.76C130.944 102.888 121.344 113.512 102.272 113H86.272ZM36.352 93.288H92.8C98.816 93.544 102.016 90.344 101.888 84.328C102.016 78.312 98.816 75.112 92.8 75.24H36.352V93.288ZM87.808 37.48H36.352V55.528H87.808C93.824 55.656 97.024 52.456 96.896 46.568C97.024 40.552 93.824 37.352 87.808 37.48ZM333.586 41.576C333.586 41.704 333.586 41.704 333.586 41.704L333.714 59.112C333.714 60.136 333.586 61.032 333.586 61.8C333.458 62.056 333.458 62.312 333.458 62.568C333.33 63.336 333.33 64.232 333.074 65C333.074 65.128 333.074 65.384 332.946 65.512C332.434 68.072 331.538 70.376 330.386 72.424C330.386 72.552 330.258 72.68 330.13 72.808C329.746 73.448 329.362 73.96 328.978 74.6C328.85 74.728 328.722 74.856 328.594 75.112C326.546 77.544 323.858 79.592 320.658 81.128C320.402 81.256 320.274 81.384 320.018 81.384C319.25 81.768 318.482 82.152 317.714 82.408C317.586 82.408 317.33 82.536 317.202 82.536C314.514 83.432 311.442 84.2 308.114 84.584C307.858 84.584 307.73 84.584 307.602 84.584C306.578 84.712 305.426 84.84 304.274 84.968C304.018 84.968 303.762 84.968 303.506 84.968C302.354 84.968 301.202 85.096 299.922 85.096H296.594H243.602V113.128H214.674V17.768H232.21H296.594H298.77C310.034 17.64 318.738 19.688 324.626 24.04C324.882 24.168 325.138 24.424 325.394 24.68C325.906 25.064 326.418 25.448 326.802 25.832C327.186 26.216 327.57 26.6 327.954 26.984C328.21 27.368 328.466 27.624 328.722 28.008C329.106 28.52 329.49 29.032 329.874 29.544C330.002 29.8 330.13 30.056 330.386 30.312C330.642 30.952 331.026 31.592 331.282 32.232C331.41 32.488 331.538 32.616 331.666 32.872C331.922 33.64 332.178 34.408 332.434 35.176C332.562 35.304 332.562 35.432 332.562 35.56C332.818 36.456 333.074 37.352 333.202 38.248C333.202 38.376 333.202 38.504 333.202 38.632C333.458 39.528 333.458 40.552 333.586 41.576ZM308.114 55.784C308.114 55.4 308.114 55.016 308.114 54.632V47.336C308.114 46.952 307.986 46.44 307.986 46.056C307.986 46.056 307.986 46.056 307.986 45.928C307.858 45.544 307.858 45.16 307.73 44.776C307.73 44.776 307.73 44.776 307.602 44.648C307.602 44.264 307.474 44.008 307.346 43.624C307.218 43.624 307.218 43.496 307.218 43.496C307.09 43.112 306.962 42.856 306.706 42.6C306.706 42.472 306.578 42.472 306.578 42.344C306.45 42.088 306.322 41.832 306.066 41.704C305.938 41.576 305.938 41.448 305.81 41.32C305.554 41.064 305.426 40.936 305.298 40.808C305.17 40.552 304.914 40.424 304.658 40.296C304.658 40.168 304.53 40.04 304.402 40.04C301.97 38.248 298.386 37.352 293.65 37.48H290.066V37.352H243.602V65.384H290.066H294.162C294.674 65.384 295.186 65.384 295.57 65.384C295.698 65.384 295.826 65.384 295.954 65.384C296.466 65.256 296.85 65.256 297.362 65.256L297.49 65.128C298.898 65 300.178 64.744 301.33 64.36C301.33 64.36 301.458 64.36 301.458 64.232C301.842 64.104 302.226 63.976 302.482 63.848C302.61 63.848 302.61 63.848 302.738 63.72C304.146 63.08 305.17 62.312 306.066 61.288C306.066 61.16 306.194 61.16 306.194 61.032C306.322 60.776 306.578 60.52 306.706 60.264C306.706 60.264 306.706 60.136 306.834 60.136C307.346 59.24 307.602 58.344 307.858 57.32C307.858 57.192 307.858 57.064 307.986 57.064C307.986 56.68 307.986 56.424 308.114 56.04C308.114 55.912 308.114 55.784 308.114 55.784ZM447.214 82.408C447.086 82.408 446.958 82.536 446.702 82.536L467.182 113L436.59 113.128L417.774 85.096H373.102V113.128H344.174V17.768H361.71H426.094H428.27C439.534 17.64 448.238 19.688 454.126 24.04C454.382 24.168 454.638 24.424 454.894 24.68C455.406 25.064 455.918 25.448 456.302 25.832C456.686 26.216 457.07 26.6 457.454 26.984C457.71 27.368 457.966 27.624 458.222 28.008C458.606 28.52 458.99 29.032 459.374 29.544C459.502 29.8 459.63 30.056 459.886 30.312C460.142 30.952 460.526 31.592 460.91 32.232C460.91 32.488 461.038 32.616 461.166 32.872C461.422 33.64 461.678 34.408 461.934 35.176C462.062 35.304 462.062 35.432 462.062 35.56C462.318 36.456 462.574 37.352 462.702 38.248C462.702 38.376 462.702 38.504 462.702 38.632C462.958 39.528 462.958 40.552 463.086 41.576C463.086 41.704 463.086 41.704 463.086 41.704L463.214 59.112C463.214 60.136 463.086 61.032 463.086 61.8C462.958 62.056 462.958 62.312 462.958 62.568C462.83 63.336 462.702 64.232 462.574 65C462.574 65.128 462.574 65.384 462.446 65.512C461.934 68.072 461.038 70.376 459.886 72.424C459.886 72.552 459.758 72.68 459.63 72.808C459.246 73.448 458.862 73.96 458.478 74.6C458.35 74.728 458.222 74.856 458.094 75.112C456.046 77.544 453.358 79.592 450.158 81.128C449.902 81.256 449.774 81.384 449.518 81.384C448.75 81.768 447.982 82.152 447.214 82.408ZM419.566 37.352H373.102V65.384H419.566H423.662C424.174 65.384 424.686 65.384 425.198 65.384C425.198 65.384 425.326 65.384 425.454 65.384C425.966 65.256 426.35 65.256 426.862 65.256L426.99 65.128C428.398 65 429.678 64.744 430.83 64.36C430.83 64.36 430.958 64.36 430.958 64.232C431.342 64.104 431.726 63.976 431.982 63.848C432.11 63.848 432.11 63.848 432.238 63.72C433.646 63.08 434.67 62.312 435.566 61.288C435.566 61.16 435.694 61.16 435.694 61.032C435.822 60.776 436.078 60.52 436.206 60.264L436.334 60.136C436.846 59.24 437.23 58.344 437.358 57.32C437.358 57.192 437.486 57.192 437.486 57.064C437.486 56.68 437.486 56.424 437.614 56.04C437.614 55.912 437.614 55.784 437.614 55.784C437.614 55.4 437.614 55.016 437.614 54.632V47.336C437.614 46.952 437.614 46.44 437.486 46.056C437.486 46.056 437.486 46.056 437.486 45.928C437.358 45.544 437.358 45.16 437.23 44.776C437.23 44.776 437.23 44.776 437.102 44.648C437.102 44.264 436.974 44.008 436.846 43.624C436.718 43.624 436.718 43.496 436.718 43.496C436.59 43.112 436.462 42.856 436.334 42.6C436.206 42.472 436.206 42.472 436.078 42.344C435.95 42.088 435.822 41.832 435.566 41.704C435.566 41.576 435.438 41.448 435.31 41.32C435.054 41.064 434.926 40.936 434.798 40.808C434.67 40.552 434.414 40.424 434.286 40.296C434.158 40.168 434.03 40.04 433.902 40.04C431.47 38.248 427.886 37.352 423.15 37.48H419.566V37.352ZM597.625 51.56V51.688V76.392C597.625 77.672 597.625 78.952 597.497 80.232C597.497 80.488 597.497 80.872 597.369 81.128C597.241 82.408 597.113 83.56 596.857 84.584C596.857 84.84 596.857 85.096 596.729 85.352C595.961 88.936 594.809 92.264 593.017 95.08C592.889 95.336 592.889 95.464 592.761 95.72C592.249 96.488 591.609 97.384 590.969 98.28C590.841 98.408 590.585 98.664 590.457 98.92C587.513 102.376 583.801 105.32 579.193 107.496C578.937 107.624 578.681 107.752 578.425 107.88C577.401 108.392 576.249 108.776 575.097 109.288C574.841 109.288 574.585 109.416 574.329 109.544C570.489 110.824 566.265 111.72 561.401 112.36C561.273 112.36 561.017 112.36 560.761 112.36C559.353 112.616 557.817 112.744 556.153 112.744C555.769 112.872 555.385 112.872 555.001 112.872C553.337 113 551.673 113 550.009 113H523.641C507.641 113.256 495.353 110.184 487.033 104.168C486.649 103.912 486.265 103.528 485.881 103.272C485.241 102.76 484.473 102.12 483.833 101.608C483.321 101.096 482.809 100.456 482.297 99.944C481.913 99.432 481.529 99.048 481.145 98.664C480.633 97.896 480.121 97.128 479.609 96.36C479.353 95.976 479.097 95.72 478.841 95.336C478.329 94.44 477.945 93.544 477.433 92.52C477.305 92.264 477.177 92.008 477.049 91.752C476.665 90.6 476.281 89.576 475.897 88.424C475.769 88.168 475.769 88.04 475.641 87.784C475.385 86.504 475.001 85.352 474.873 83.944C474.745 83.816 474.745 83.688 474.745 83.56C474.489 82.152 474.361 80.744 474.233 79.336C474.233 79.208 474.233 79.208 474.233 79.08V54.376C474.233 53.096 474.233 51.816 474.361 50.664C474.361 50.28 474.361 50.024 474.489 49.64C474.617 48.488 474.745 47.336 475.001 46.184C475.001 45.928 475.001 45.672 475.129 45.416C475.897 41.832 477.049 38.632 478.841 35.688C478.841 35.432 478.969 35.304 479.097 35.176C479.609 34.28 480.249 33.384 480.889 32.616C481.017 32.36 481.273 32.104 481.401 31.976C484.345 28.392 488.057 25.448 492.665 23.272C492.921 23.144 493.177 23.016 493.433 22.888C494.457 22.376 495.609 21.992 496.761 21.48C497.017 21.48 497.273 21.352 497.529 21.352C501.369 19.944 505.593 19.048 510.457 18.408C510.585 18.408 510.841 18.408 510.969 18.408C512.505 18.152 514.041 18.024 515.705 18.024C516.089 18.024 516.473 17.896 516.857 17.896C518.521 17.896 520.185 17.768 521.849 17.768H548.217C564.217 17.64 576.505 20.584 584.825 26.6C585.209 26.856 585.593 27.24 585.977 27.496C586.617 28.136 587.385 28.648 588.025 29.288C588.537 29.8 589.049 30.312 589.561 30.824C589.945 31.336 590.329 31.72 590.713 32.232C591.225 32.872 591.737 33.64 592.249 34.408C592.505 34.792 592.761 35.176 593.017 35.432C593.529 36.328 593.913 37.352 594.425 38.248C594.553 38.504 594.681 38.76 594.809 39.144C595.193 40.168 595.577 41.32 595.961 42.344C596.089 42.6 596.089 42.856 596.217 42.984C596.473 44.264 596.729 45.544 596.985 46.824C596.985 46.952 597.113 47.08 597.113 47.336C597.369 48.616 597.497 50.024 597.625 51.56ZM568.569 73.192C568.569 72.552 568.697 71.912 568.697 71.272L568.569 58.088C568.569 57.32 568.441 56.552 568.313 55.784C568.313 55.656 568.313 55.656 568.313 55.528C568.185 54.888 568.057 54.12 567.801 53.48C567.801 53.48 567.801 53.352 567.801 53.224C567.545 52.584 567.417 52.072 567.161 51.432C567.033 51.304 567.033 51.176 566.905 51.048C566.649 50.536 566.393 50.024 566.137 49.512C566.009 49.384 565.881 49.128 565.753 49C565.497 48.616 565.241 48.232 564.985 47.848C564.729 47.592 564.601 47.336 564.345 47.08C564.089 46.824 563.833 46.44 563.577 46.184C563.193 45.928 562.809 45.672 562.425 45.288C562.297 45.16 562.041 45.032 561.913 44.776C557.433 41.576 550.905 40.04 542.457 40.168H528.505C527.609 40.168 526.713 40.168 525.817 40.168C525.561 40.296 525.433 40.296 525.177 40.296C524.409 40.296 523.513 40.424 522.745 40.424C522.617 40.424 522.489 40.552 522.361 40.552C519.801 40.808 517.625 41.32 515.577 41.96C515.449 42.088 515.321 42.088 515.193 42.088C514.553 42.344 513.913 42.6 513.401 42.856C513.273 42.984 513.145 42.984 513.017 43.112C510.585 44.264 508.537 45.8 507.001 47.592C506.873 47.72 506.873 47.848 506.745 47.976C506.361 48.36 506.105 48.872 505.849 49.384C505.721 49.384 505.721 49.512 505.593 49.64C504.697 51.176 504.057 52.968 503.673 54.76C503.673 54.888 503.673 55.016 503.545 55.144C503.417 55.784 503.417 56.424 503.289 57.064C503.289 57.192 503.289 57.32 503.289 57.576C503.161 58.216 503.161 58.856 503.161 59.624L503.289 72.68C503.289 72.68 503.289 72.68 503.289 72.808C503.289 73.576 503.417 74.216 503.545 74.984C503.545 75.112 503.545 75.112 503.545 75.24C503.673 75.88 503.801 76.648 503.929 77.288C504.057 77.416 504.057 77.416 504.057 77.544C504.313 78.184 504.441 78.824 504.697 79.336C504.825 79.464 504.825 79.592 504.953 79.72C505.209 80.232 505.337 80.744 505.721 81.256C505.849 81.384 505.977 81.64 505.977 81.768C506.361 82.152 506.617 82.664 506.873 83.048C507.129 83.176 507.257 83.432 507.513 83.688C507.769 83.944 508.025 84.328 508.281 84.584C508.665 84.84 509.049 85.224 509.433 85.48C509.561 85.608 509.817 85.864 509.945 85.992C514.425 89.192 520.953 90.728 529.401 90.6H543.353C544.249 90.6 545.145 90.6 546.041 90.6C546.297 90.6 546.425 90.6 546.681 90.472C547.449 90.472 548.345 90.344 549.113 90.344C549.241 90.344 549.369 90.344 549.497 90.216C551.929 89.96 554.233 89.448 556.281 88.808C556.409 88.68 556.537 88.68 556.665 88.68C557.305 88.424 557.945 88.168 558.457 87.912C558.585 87.912 558.713 87.784 558.841 87.656C561.273 86.504 563.321 84.968 564.857 83.176C564.985 83.048 564.985 82.92 565.113 82.792C565.497 82.408 565.753 81.896 566.009 81.384C566.137 81.384 566.137 81.256 566.265 81.128C567.161 79.592 567.801 77.928 568.185 76.008C568.185 75.88 568.185 75.752 568.313 75.624C568.313 74.984 568.441 74.344 568.569 73.704C568.569 73.576 568.569 73.448 568.569 73.192Z" fill="white"/>
<circle cx="168" cy="44" r="12" fill="white"/>
<circle cx="168" cy="84" r="12" fill="white"/>
<path d="M618 19L639 0V38L618 57V19Z" fill="white"/>
<path d="M659 19L639 0V38L659 57V19Z" fill="white"/>
</svg>
