<svg width="123" height="90" viewBox="0 0 123 90" fill="none" xmlns="http://www.w3.org/2000/svg">
<path d="M61.056 78.848C58.8373 78.848 56.7893 78.2507 54.912 77.056C53.0347 75.8613 51.584 74.2827 50.56 72.32L30.336 31.232L18.816 89.216H3.93391e-06L15.616 10.752C16.128 8.10666 17.3653 5.888 19.328 4.096C21.2907 2.21867 23.6373 1.10933 26.368 0.767998C26.7093 0.682666 27.264 0.639999 28.032 0.639999C30.4213 0.639999 32.5973 1.28 34.56 2.56C36.608 3.75466 38.1867 5.46133 39.296 7.68L61.056 51.712L82.816 7.68C84.0107 5.46133 85.8027 3.62667 88.192 2.176C90.6667 0.725334 93.2267 0.255999 95.872 0.767998C98.6027 1.10933 100.907 2.21867 102.784 4.096C104.747 5.888 106.027 8.10666 106.624 10.752L122.24 89.216H103.424L91.776 31.232L71.552 72.32C70.6133 74.2827 69.1627 75.8613 67.2 77.056C65.3227 78.2507 63.2747 78.848 61.056 78.848Z" fill="url(#paint0_linear_258_13)"/>
<defs>
<linearGradient id="paint0_linear_258_13" x1="127.104" y1="56.716" x2="-0.895996" y2="56.716" gradientUnits="userSpaceOnUse">
<stop stop-color="#E2E2E2"/>
<stop offset="1" stop-color="#36F099"/>
</linearGradient>
</defs>
</svg>
