<svg width="223" height="223" viewBox="0 0 223 223" fill="none" xmlns="http://www.w3.org/2000/svg">
<circle cx="111.399" cy="111.399" r="111.399" fill="#262525"/>
<g filter="url(#filter0_d_264_107)">
<path d="M166.419 156.506C166.56 157.35 165.998 157.913 165.294 157.913H143.497C142.794 157.913 142.372 157.491 142.232 156.788L137.732 107.006C137.591 105.74 135.763 105.6 135.341 106.865L119.31 157.069C119.169 157.631 118.607 157.913 118.185 157.913H103.278C102.716 157.913 102.294 157.631 102.153 157.069L85.9814 106.865C85.7001 105.6 83.872 105.74 83.7314 107.006L79.0907 156.788C79.0907 157.491 78.5282 157.913 77.9657 157.913H56.1687C55.4655 157.913 54.903 157.35 55.0437 156.506L67.2781 60.5994C67.4188 60.0369 67.8406 59.615 68.4031 59.615H93.7158C94.1377 59.615 94.7002 59.8962 94.8408 60.4588L109.747 109.115C110.169 110.24 111.716 110.24 111.997 109.115L126.482 60.4588C126.622 59.8962 127.044 59.615 127.607 59.615H152.919C153.622 59.615 154.044 60.0369 154.185 60.5994L166.419 156.506Z" fill="#0CFBAE"/>
</g>
<defs>
<filter id="filter0_d_264_107" x="1.22197" y="5.81499" width="219.019" height="205.898" filterUnits="userSpaceOnUse" color-interpolation-filters="sRGB">
<feFlood flood-opacity="0" result="BackgroundImageFix"/>
<feColorMatrix in="SourceAlpha" type="matrix" values="0 0 0 0 0 0 0 0 0 0 0 0 0 0 0 0 0 0 127 0" result="hardAlpha"/>
<feOffset/>
<feGaussianBlur stdDeviation="26.9"/>
<feComposite in2="hardAlpha" operator="out"/>
<feColorMatrix type="matrix" values="0 0 0 0 0.0588235 0 0 0 0 0.984314 0 0 0 0 0.686275 0 0 0 1 0"/>
<feBlend mode="normal" in2="BackgroundImageFix" result="effect1_dropShadow_264_107"/>
<feBlend mode="normal" in="SourceGraphic" in2="effect1_dropShadow_264_107" result="shape"/>
</filter>
</defs>
</svg>
