<?xml version="1.0" encoding="UTF-8" standalone="no"?>
<!-- Created with Inkscape (http://www.inkscape.org/) -->

<svg
   width="170.99884mm"
   height="62.968735mm"
   viewBox="0 0 170.99884 62.968735"
   version="1.1"
   id="svg1"
   xml:space="preserve"
   xmlns:xlink="http://www.w3.org/1999/xlink"
   xmlns="http://www.w3.org/2000/svg"
   xmlns:svg="http://www.w3.org/2000/svg"><defs
     id="defs1"><linearGradient
       id="linearGradient16"><stop
         style="stop-color:#3a0000;stop-opacity:0.56;"
         offset="0"
         id="stop13" /><stop
         style="stop-color:#380000;stop-opacity:0.2;"
         offset="0.48143566"
         id="stop14" /><stop
         style="stop-color:#004e17;stop-opacity:0.2;"
         offset="0.58168316"
         id="stop15" /><stop
         style="stop-color:#004e17;stop-opacity:0.56;"
         offset="1"
         id="stop16" /></linearGradient><linearGradient
       id="linearGradient12"><stop
         style="stop-color:#5c0000;stop-opacity:0.56;"
         offset="0"
         id="stop9" /><stop
         style="stop-color:#5c0000;stop-opacity:0.2;"
         offset="0.48143566"
         id="stop10" /><stop
         style="stop-color:#006620;stop-opacity:0.2;"
         offset="0.58168316"
         id="stop11" /><stop
         style="stop-color:#006620;stop-opacity:0.56;"
         offset="1"
         id="stop12" /></linearGradient><linearGradient
       id="linearGradient1"><stop
         style="stop-color:#800000;stop-opacity:0.56;"
         offset="0"
         id="stop1" /><stop
         style="stop-color:#800000;stop-opacity:0.2;"
         offset="0.48143566"
         id="stop4" /><stop
         style="stop-color:#008022;stop-opacity:0.2;"
         offset="0.58168316"
         id="stop3" /><stop
         style="stop-color:#008022;stop-opacity:0.56;"
         offset="1"
         id="stop2" /></linearGradient><linearGradient
       xlink:href="#linearGradient1"
       id="linearGradient3"
       x1="3.8747363"
       y1="109.06196"
       x2="198.51891"
       y2="109.06196"
       gradientUnits="userSpaceOnUse" /><linearGradient
       xlink:href="#linearGradient12"
       id="linearGradient8"
       x1="3.8085537"
       y1="112.62029"
       x2="193.97803"
       y2="112.62029"
       gradientUnits="userSpaceOnUse" /><linearGradient
       xlink:href="#linearGradient16"
       id="linearGradient9"
       x1="3.7476015"
       y1="113.95346"
       x2="182.51175"
       y2="113.95346"
       gradientUnits="userSpaceOnUse" /></defs><g
     id="layer2"
     style="display:inline"
     transform="translate(-10.102741,-82.463202)"><path
       id="path1"
       style="display:inline;fill:url(#linearGradient3);fill-rule:nonzero;stroke-width:0.264583"
       d="m 10.102743,94.954411 v 8.378299 c 1.764151,0.82239 3.38751,1.83941 5.073075,2.77037 l 16.855302,11.36624 c 4.902447,2.37413 9.857937,4.48205 15.240413,4.45605 3.93188,0.0832 6.371089,-0.33189 12.132076,1.46606 4.422989,-0.23836 8.968813,0.13738 13.635344,1.11673 l 9.622151,0.64596 8.136971,-0.77515 5.966044,0.15451 8.799461,-2.33887 3.5171,1.19011 c 0.91288,0.6879 2.60913,1.97048 3.95583,2.00298 1.45855,0.0352 4.86292,-1.10104 5.31544,-1.33584 0.11313,-0.0587 4.83465,-3.91303 9.17877,-5.79655 0.91354,-0.39609 15.92356,-4.66097 22.03896,-7.0099 3.0935,-1.18822 1.11497,1.51039 9.24026,-2.50786 4.61028,-2.27995 11.1567,-3.58632 11.251,-3.63492 0.37724,-0.19431 10.69582,-2.87383 11.03188,-2.87424 0.003,-1e-5 0.006,-1e-5 0.009,0 v -4.471566 c -0.61797,0.0069 -1.28913,0.04071 -2.08825,0.09043 -0.24451,0.01521 -13.22582,2.262416 -13.32993,2.152846 -0.48018,-0.50535 -6.71431,3.45558 -12.18686,4.52324 -3.17609,0.61963 -12.68263,4.09865 -12.42404,3.90725 0.52067,-0.38537 -14.74986,4.22713 -21.29018,8.31991 -0.40078,0.2508 -5.33249,2.22002 -5.33249,2.22002 -1.2581,0.0553 -2.49286,-0.0623 -3.72949,-0.75861 -1.16262,-0.54727 -1.67475,-1.36659 -3.32537,-1.87276 -1.36156,-0.40394 -1.72925,-0.51158 -2.91507,-0.26096 l -6.210476,1.64434 -2.465999,0.4563 c -2.108341,0.025 -4.171956,-0.55499 -6.758244,0.27389 -0.698992,0.42667 -1.724375,0.36384 -2.760555,0.28474 -1.085018,-0.0274 -2.24239,0.28822 -3.701066,0.19482 -3.312246,-0.82744 -7.262875,-2.51717 -9.886219,-2.0774 -3.175539,-1.73189 -6.760784,-2.7599 -10.152351,-1.77147 -0.706395,0.20587 -1.148504,-0.1024 -4.734078,0.35554 -8.904103,-2.29531 -7.352103,-1.27056 -9.498129,-1.46089 -7.98814,-1.94735 -6.458565,-0.9177 -7.762833,-0.73071 l -2.351795,-0.87333 -2.351794,-0.59945 -2.329057,-1.34152 c -3.822197,-1.13948 -5.726333,-2.8184 -7.648629,-4.49223 -2.769426,-2.05933 -5.360415,-4.6421 -8.071342,-7.13135 -0.779342,-0.715611 -2.250292,-1.521977 -3.329512,-2.355929 l -3.255099,-1.103808 z" /><path
       id="path1-2"
       style="display:inline;fill:url(#linearGradient8);fill-rule:nonzero;stroke-width:0.264583"
       d="m 179.55493,90.337122 -5.2e-4,5.16e-4 c -0.0819,4.48e-4 -0.1584,0.0075 -0.23099,0.02015 -2.32269,0.405584 -6.59494,-0.03948 -9.68985,0.273368 -3.09491,0.312848 -5.54149,0.903182 -8.15505,1.264006 -2.61356,0.360824 -5.20161,2.558824 -6.08025,3.108337 -1.75726,1.099022 -4.17813,1.407856 -6.46524,2.406055 -2.28711,0.9982 -4.44049,2.685776 -6.8864,3.416336 -4.89181,1.46113 -9.37722,2.73242 -13.03073,4.87308 -3.89506,2.2822 -4.22941,1.7293 -7.26054,4.8979 -3.08421,3.22408 -10.96976,9.97916 -13.02556,11.43547 l -3.16777,0.14832 -8.836151,2.35282 -5.929354,-0.15968 -8.136971,0.77515 -9.622152,-0.64596 c -4.666531,-0.97935 -9.212354,-1.35508 -13.635343,-1.11672 -5.760987,-1.79795 -8.199679,-1.38341 -12.131559,-1.46658 -5.382476,0.026 -10.338484,-2.08193 -15.240931,-4.45606 l -16.854785,-11.3652 c -1.685156,-0.93073 -3.30826,-1.94757 -5.072041,-2.76985 v 10.61899 l 0.156062,0.0279 5.385718,4.34237 c 1.07922,0.83395 4.211432,4.18292 4.944401,4.94595 2.391154,2.48925 6.497902,5.21723 9.346716,7.27656 1.922296,1.67383 2.922611,3.02978 6.744808,4.16926 3.040907,0.5171 6.466319,-0.12528 9.965284,-0.48266 l 5.24154,-1.64486 3.611149,-0.40204 c 1.963706,0.67187 3.897819,1.25135 5.495272,-0.40773 0.439422,-0.49847 1.067602,-1.57931 1.628841,-1.54409 1.900396,0.11925 2.840633,-0.15275 3.645256,-0.41497 3.23039,-0.006 5.862814,1.51976 8.25531,1.78129 3.078344,0.33651 4.054659,-0.67799 5.232755,-0.85783 1.912017,-0.29187 3.256669,-0.37408 3.565674,-0.93276 0.938357,-0.4882 1.148865,-2.14653 4.827096,-3.25199 0.238448,-0.19303 1.520684,-1.93178 2.284098,-1.86966 0.681789,0.0555 0.953168,0.40378 2.705778,0.81132 1.03618,0.0791 4.617996,1.31964 5.316988,0.89297 0.572003,-0.24482 1.624501,-0.81964 2.569351,-1.2547 l 3.42667,-1.90945 c 1.08366,-0.66595 1.06039,-1.00295 2.36781,-0.7276 0.37858,-0.0407 1.35986,-0.18793 1.76888,-0.22014 l 0.008,-0.002 c -0.002,0.002 -0.003,0.004 -0.004,0.006 l -5.2e-4,5.2e-4 h -5.1e-4 v 5.2e-4 5.1e-4 l 0.015,-0.009 1.62988,-0.31884 1.09864,-0.51366 3.62872,-1.97714 c 0,0 4.41701,-2.46067 4.81779,-2.71147 6.54032,-4.09277 21.81136,-8.70476 21.29069,-8.31939 -0.25859,0.1914 9.24744,-3.28814 12.42353,-3.90777 5.47255,-1.06766 11.70719,-5.028068 12.18737,-4.52272 0.10411,0.10957 13.08499,-2.136871 13.32942,-2.15336 0.79968,-0.05395 1.48424,-0.08548 2.0898,-0.09612 v -7.0509 c -0.77785,-0.237538 -1.31931,-0.364011 -1.54668,-0.362768 z" /><path
       id="path1-2-0"
       style="display:inline;fill:url(#linearGradient9);fill-rule:nonzero;stroke-width:0.264583"
       d="m 163.61947,82.464734 c -0.58273,0.02476 -1.91128,0.350259 -3.68866,1.018026 -2.5709,0.965893 -5.37038,4.840773 -6.49625,4.813143 -7.906,-0.194036 -7.94832,3.267291 -12.17755,4.963521 -2.11461,0.848117 -5.05167,-0.275939 -7.80831,0.07235 -1.72717,0.218218 -6.25237,1.103028 -8.04188,2.151806 -3.57901,2.097556 -5.28074,4.60593 -7.76801,6.82852 -2.48728,2.22257 -5.03882,5.26483 -6.56962,7.17992 -1.53081,1.91508 -3.33821,2.46244 -4.04782,3.63751 -0.7096,1.17508 -1.04238,1.87182 -1.06608,1.87482 -1.30742,-0.27535 -1.65066,2.326 -2.20813,2.82825 l -3.809074,3.82871 c -0.6876,0.21874 -2.431045,2.85675 -4.274675,3.47575 -0.698992,0.42663 -1.485113,0.43412 -2.521293,0.35502 -1.75261,-0.40754 -2.024505,-0.75634 -2.706294,-0.81184 -0.763414,-0.0621 -2.045651,1.67715 -2.284099,1.87018 -3.678231,1.10546 -3.888738,2.76379 -4.827095,3.25199 -0.309005,0.55868 -1.65314,0.64089 -3.565157,0.93276 -1.178096,0.17984 -2.154412,1.19434 -5.232756,0.85783 -2.392496,-0.26153 -5.02492,-1.78729 -8.25531,-1.78129 -0.804623,0.26222 -1.745376,0.53422 -3.645772,0.41497 -0.561239,-0.0352 -1.188903,1.04562 -1.628325,1.54409 -1.597453,1.65908 -3.531565,1.0796 -5.495271,0.40773 l -3.61115,0.40204 -5.24154,1.64486 c -3.498965,0.35738 -6.924376,0.99976 -9.965283,0.48266 -3.822197,-1.13948 -4.822512,-2.49543 -6.744808,-4.16926 -2.848814,-2.05934 -6.955562,-4.78731 -9.346716,-7.27656 -0.732969,-0.76303 -3.865182,-4.11251 -4.944402,-4.94646 l -5.385717,-4.34186 -0.15968,-0.0289 v 7.33909 l 0.251664,0.004 8.733834,13.08499 c 2.545315,3.98861 11.307978,11.07804 16.690454,11.05204 3.969436,0.27095 11.05146,-7.15038 16.860469,-12.73825 4.422989,-0.23836 4.127258,1.58786 6.323645,1.24334 0.989747,-0.51179 2.57147,-3.25544 12.625069,-2.80913 1.614473,0.50586 1.660259,0.55713 5.004863,0.77463 3.822844,-0.70711 7.642042,-0.81114 13.664282,-3.46387 4.300146,-1.89417 3.816572,-1.03585 5.34386,-1.21957 2.679123,-0.32229 4.662637,-1.67967 7.284827,-3.11712 0.89719,-0.49182 1.66798,-0.99594 2.61896,-1.60042 0.87056,-0.55335 2.11222,0.37118 3.23288,-0.46095 2.4324,-1.80614 7.84573,-6.12121 13.01884,-11.44271 3.24825,-3.34142 3.36548,-2.61621 7.26054,-4.89841 3.65351,-2.14066 8.13892,-3.41144 13.03073,-4.87257 2.44591,-0.73056 4.59929,-2.41813 6.8864,-3.41633 2.28711,-0.998199 4.70798,-1.307033 6.46524,-2.406055 0.87864,-0.549513 3.46669,-2.74803 6.08025,-3.108854 2.61356,-0.360824 5.06015,-0.950641 8.15506,-1.263489 3.09491,-0.31285 7.36715,0.132216 9.68984,-0.273368 0.49319,-0.08612 1.17487,0.09631 1.77716,0.304374 v -2.018481 c -1.76878,-1.20602 -4.69021,-1.869613 -8.52971,-2.411739 -2.15788,-0.304686 -4.39032,-1.390259 -6.00377,-2.22157 -1.61345,-0.83131 -2.60767,-1.408474 -2.62517,-1.465544 -0.0175,-0.05708 -0.12925,-0.08215 -0.32349,-0.0739 z" /></g></svg>
