<svg width="642" height="92" viewBox="0 0 642 92" fill="none" xmlns="http://www.w3.org/2000/svg">
<path d="M101.504 88.32C101.632 89.088 101.12 89.6 100.48 89.6H80.6401C80.0001 89.6 79.6161 89.216 79.4881 88.576L75.3921 43.264C75.2641 42.112 73.6001 41.984 73.2161 43.136L58.6241 88.832C58.4961 89.344 57.9841 89.6 57.6001 89.6H44.0321C43.5201 89.6 43.1361 89.344 43.0081 88.832L28.2881 43.136C28.0321 41.984 26.3681 42.112 26.2401 43.264L22.0161 88.576C22.0161 89.216 21.5041 89.6 20.9921 89.6H1.15209C0.512086 89.6 8.60691e-05 89.088 0.128086 88.32L11.2641 1.02402C11.3921 0.512024 11.7761 0.128021 12.2881 0.128021H35.3281C35.7121 0.128021 36.2241 0.384026 36.3521 0.896027L49.9201 45.184C50.3041 46.208 51.7121 46.208 51.9681 45.184L65.1521 0.896027C65.2801 0.384026 65.6641 0.128021 66.1761 0.128021H89.2161C89.8561 0.128021 90.2401 0.512024 90.3681 1.02402L101.504 88.32ZM137.923 20.224C157.763 20.224 173.891 36.096 173.891 55.68C173.891 75.136 157.763 91.136 137.923 91.136C118.083 91.136 102.083 75.136 102.083 55.68C102.083 36.096 118.083 20.224 137.923 20.224ZM137.923 71.168C146.627 71.168 153.667 64.128 153.667 55.68C153.667 47.104 146.627 40.192 137.923 40.192C129.347 40.192 122.307 47.104 122.307 55.68C122.307 64.128 129.347 71.168 137.923 71.168ZM213.673 20.224C233.513 20.224 249.641 36.096 249.641 55.68C249.641 75.136 233.513 91.136 213.673 91.136C193.833 91.136 177.833 75.136 177.833 55.68C177.833 36.096 193.833 20.224 213.673 20.224ZM213.673 71.168C222.377 71.168 229.417 64.128 229.417 55.68C229.417 47.104 222.377 40.192 213.673 40.192C205.097 40.192 198.057 47.104 198.057 55.68C198.057 64.128 205.097 71.168 213.673 71.168ZM290.954 50.176C295.306 52.224 305.29 58.112 304.65 68.736C304.522 71.168 303.882 73.728 302.858 76.288C298.762 84.864 289.418 89.984 277.77 89.984C276.234 89.984 274.57 89.984 272.906 89.728C267.658 89.088 263.05 87.68 259.338 85.632C255.37 82.944 252.426 79.232 250.378 74.624C250.122 73.984 250.506 73.216 251.146 73.088L269.706 69.12C270.09 68.992 270.602 69.248 270.858 69.632C272.138 71.552 274.314 72.448 275.594 72.576C278.41 72.96 279.818 72.192 280.586 71.424C281.354 70.784 281.61 69.76 281.482 68.736C281.226 66.432 279.818 65.28 272.65 61.952L272.522 61.824C271.114 61.184 269.322 60.288 267.402 59.392C265.994 58.752 264.714 58.112 263.434 57.472L263.306 57.344C263.178 57.344 262.922 57.216 262.794 57.088C256.394 53.376 252.554 48.896 251.658 43.776C250.25 36.352 254.986 30.08 256.01 28.928C257.418 27.264 259.082 25.856 261.002 24.704C266.506 21.12 273.802 19.584 281.354 20.48C285.962 20.992 290.058 22.272 293.514 24.064C295.306 24.96 296.842 26.112 298.25 27.264C299.274 28.16 302.218 31.104 303.242 35.712C303.37 36.224 302.986 36.864 302.346 36.992L284.042 40.704C283.53 40.704 283.146 40.448 282.89 39.936C282.378 38.656 281.226 37.376 278.794 37.12C277.258 36.992 275.85 37.376 274.826 38.4C274.186 39.168 273.93 40.192 274.058 40.96C274.442 42.24 275.722 44.16 282.506 46.848C283.914 47.36 285.066 47.872 286.346 48.384C287.882 49.024 289.418 49.536 290.954 50.176ZM367.284 0.128021C367.924 0.128021 368.436 0.640022 368.436 1.28002V19.712C368.436 20.224 367.924 20.736 367.284 20.736H351.412C350.772 20.736 350.26 21.248 350.26 21.888V88.576C350.26 89.088 349.876 89.6 349.236 89.6H328.628C327.988 89.6 327.604 89.088 327.604 88.576V21.888C327.604 21.248 327.092 20.736 326.452 20.736H310.452C309.812 20.736 309.428 20.224 309.428 19.712V1.28002C309.428 0.640022 309.812 0.128021 310.452 0.128021H367.284ZM407.599 21.248C408.239 21.248 408.751 21.76 408.623 22.4L407.983 38.272C407.983 38.912 407.471 39.296 406.831 39.296C405.039 39.168 401.327 38.912 399.151 39.424C396.719 39.936 395.311 41.856 394.927 42.752C393.775 45.056 393.775 47.232 393.775 49.792V87.936C393.775 88.448 393.263 88.96 392.751 88.96H372.527C371.887 88.96 371.503 88.448 371.503 87.936V22.4C371.503 21.76 371.887 21.248 372.527 21.248H391.471C391.983 21.248 392.495 21.76 392.495 22.4V24.32C392.495 24.704 393.007 24.96 393.391 24.704C397.871 21.888 403.119 21.376 407.599 21.248ZM482.499 21.248C483.139 21.248 483.523 21.76 483.523 22.4V87.808C483.523 88.448 483.139 88.96 482.499 88.96H463.555C463.043 88.96 462.531 88.448 462.531 87.808V86.912C462.531 86.4 462.019 86.144 461.635 86.4C456.259 89.472 450.115 91.008 443.843 91.008C424.003 91.008 408.003 75.136 408.003 55.68C408.003 36.096 424.003 20.224 443.843 20.224C450.115 20.224 456.259 21.76 461.635 24.832C462.019 25.088 462.531 24.832 462.531 24.448V22.4C462.531 21.76 463.043 21.248 463.555 21.248H482.499ZM447.043 71.936C456.131 71.936 462.531 64.64 462.531 55.68C462.531 46.72 456.131 39.424 447.043 39.424C438.083 39.424 430.659 46.72 430.659 55.68C430.659 64.64 438.083 71.936 447.043 71.936ZM563.499 2.28882e-05C564.139 2.28882e-05 564.523 0.384026 564.523 1.02402V87.808C564.523 88.448 564.139 88.96 563.499 88.96H544.555C544.043 88.96 543.531 88.448 543.531 87.808V86.912C543.531 86.4 543.019 86.144 542.635 86.4C537.259 89.472 531.115 91.008 524.843 91.008C505.003 91.008 489.003 75.136 489.003 55.68C489.003 36.096 505.003 20.224 524.843 20.224C531.115 20.224 537.259 21.76 542.635 24.832C543.019 25.088 543.531 24.832 543.531 24.448V1.02402C543.531 0.384026 544.043 2.28882e-05 544.555 2.28882e-05H563.499ZM528.043 71.936C537.131 71.936 543.531 64.64 543.531 55.68C543.531 46.72 537.131 39.424 528.043 39.424C519.083 39.424 511.659 46.72 511.659 55.68C511.659 64.64 519.083 71.936 528.043 71.936ZM640.275 45.696C641.299 48.896 641.811 52.224 641.811 55.68C641.811 57.6 641.555 59.904 641.171 61.952C641.171 62.464 640.659 62.848 640.147 62.848H592.787C591.891 62.848 591.379 63.744 591.763 64.512C594.707 69.376 599.955 72.448 605.715 72.448C610.579 72.448 615.187 70.4 618.387 66.176C618.643 65.92 619.027 65.664 619.539 65.792L637.587 68.992C638.355 69.12 638.739 69.888 638.355 70.528C637.971 71.424 637.459 72.448 637.203 72.96L636.947 73.472C636.563 73.984 636.307 74.368 636.051 75.008C635.539 75.648 635.155 76.16 634.771 76.672L634.515 76.928C634.387 77.184 634.259 77.312 634.131 77.44L634.003 77.696C633.747 78.08 633.491 78.336 633.235 78.592L632.979 78.848C632.595 79.36 632.211 79.744 631.827 80.128L631.571 80.384C631.187 80.768 630.931 81.024 630.675 81.28L630.547 81.408C630.291 81.664 629.907 81.92 629.651 82.176L629.267 82.56L628.883 82.176L629.139 82.56C628.627 83.072 628.243 83.456 627.731 83.712L627.347 84.096C626.707 84.48 626.195 84.864 625.555 85.248L625.427 85.376C624.787 85.76 624.147 86.144 623.379 86.528L623.251 86.656C623.123 86.784 622.867 86.912 622.739 86.912L622.611 87.04C622.355 87.168 621.971 87.296 621.715 87.424L621.587 87.552C620.947 87.808 620.307 88.064 619.667 88.32V88.448C619.155 88.576 618.899 88.704 618.515 88.832L618.003 88.96C617.619 89.088 617.107 89.344 616.723 89.472H616.595C616.083 89.6 615.571 89.728 615.059 89.856L614.675 89.984C613.651 90.24 612.627 90.496 611.603 90.624L611.219 90.752C610.067 90.88 609.043 91.008 607.891 91.008H607.507C606.867 91.136 606.355 91.136 605.843 91.136C605.331 91.136 604.819 91.136 604.179 91.008C604.051 91.008 603.923 91.008 603.795 91.008H603.667C603.283 91.008 602.899 91.008 602.515 90.88H602.387C602.259 90.88 602.131 90.88 602.003 90.88C601.363 90.88 600.851 90.752 600.467 90.624H600.339H600.083C599.699 90.624 599.187 90.496 598.803 90.368L598.291 90.24C597.907 90.24 597.523 90.112 597.139 89.984H597.011C596.883 89.984 596.883 89.984 596.755 89.984C596.115 89.728 595.603 89.6 595.219 89.472C594.707 89.344 594.195 89.216 593.683 88.96C593.555 88.96 593.427 88.96 593.299 88.832C592.915 88.704 592.531 88.576 592.147 88.448L592.019 88.32C591.891 88.32 591.891 88.32 591.763 88.192C591.251 88.064 590.739 87.808 590.355 87.552H590.227C589.843 87.424 589.331 87.168 588.947 86.912C588.819 86.784 588.691 86.784 588.563 86.656H588.435C588.179 86.528 587.795 86.272 587.539 86.144L587.027 85.888C586.643 85.632 586.259 85.376 585.747 84.992C581.523 82.176 577.811 78.336 575.123 73.984C574.867 73.6 574.739 73.344 574.483 72.96L574.355 72.704C574.227 72.448 573.971 72.064 573.843 71.68L573.715 71.424C573.587 71.296 573.587 71.296 573.587 71.168C572.819 69.76 572.307 68.224 571.795 66.688C571.411 65.92 571.283 65.152 571.027 64.512C570.899 64 570.771 63.36 570.643 62.848C570.259 61.056 570.131 59.264 570.003 57.472C570.003 56.832 570.003 56.32 570.003 55.68C570.003 55.04 570.003 54.4 570.003 53.888C570.131 50.688 570.771 47.616 571.795 44.544C572.051 43.52 572.435 42.752 572.819 41.856C572.947 41.344 573.203 40.96 573.459 40.448C573.459 40.32 573.459 40.192 573.587 40.064L573.715 39.808C573.715 39.808 573.843 39.68 573.843 39.552C573.971 39.424 573.971 39.296 574.099 39.168L574.355 38.656C574.611 38.144 574.867 37.76 575.123 37.248C577.811 32.896 581.523 29.184 585.747 26.24C586.259 25.984 586.643 25.728 587.027 25.472L587.539 25.216C587.795 24.96 588.179 24.832 588.435 24.704L588.563 24.576C588.691 24.576 588.819 24.448 588.947 24.448C589.331 24.192 589.843 23.936 590.227 23.68C590.739 23.552 591.251 23.296 591.763 23.04C591.891 23.04 591.891 23.04 592.019 22.912H592.147C592.531 22.784 592.915 22.656 593.299 22.528V22.4C593.427 22.4 593.555 22.4 593.683 22.272C594.195 22.144 594.707 22.016 595.219 21.76C595.731 21.632 596.243 21.504 596.755 21.376C596.883 21.376 596.883 21.376 597.011 21.248H597.139C597.523 21.12 597.907 21.12 598.291 20.992H598.547C599.059 20.864 599.827 20.736 600.339 20.608C600.467 20.608 600.467 20.608 600.467 20.608C600.851 20.608 601.363 20.48 602.003 20.48C602.131 20.48 602.259 20.352 602.387 20.352H602.515C602.899 20.352 603.283 20.352 603.667 20.352H603.795C603.923 20.224 604.051 20.224 604.179 20.224C604.819 20.224 605.331 20.224 605.843 20.224C606.355 20.224 606.867 20.224 607.507 20.224L607.891 20.352C609.043 20.352 610.067 20.48 611.091 20.608L611.603 20.736C612.627 20.864 613.651 20.992 614.675 21.248L615.059 21.376C615.571 21.504 616.083 21.76 616.595 21.888H616.723C617.107 22.016 617.619 22.144 618.003 22.272C618.131 22.4 618.259 22.4 618.387 22.528C618.899 22.656 619.155 22.784 619.539 22.912H619.795C620.307 23.168 620.947 23.552 621.587 23.808H621.715C621.971 24.064 622.355 24.192 622.611 24.32L622.483 24.832L622.739 24.32C622.867 24.448 623.123 24.576 623.251 24.704C623.891 24.96 624.787 25.6 625.427 25.984C626.067 26.368 626.707 26.752 627.219 27.264H627.347C627.475 27.392 627.603 27.52 627.731 27.52C628.243 27.904 628.627 28.288 629.139 28.672L629.523 28.928C629.907 29.312 630.163 29.568 630.547 29.952L630.675 30.08C630.931 30.336 631.187 30.592 631.571 30.848L631.699 31.104C632.211 31.616 632.595 32 632.979 32.384L632.595 32.896L632.979 32.512L633.235 32.768C633.491 33.024 633.747 33.28 634.003 33.536L634.131 33.792C634.387 34.176 634.771 34.56 635.027 34.944C635.283 35.2 635.411 35.584 635.667 35.84L636.051 36.352C636.179 36.736 636.307 36.992 636.563 37.248L637.203 38.272C638.483 40.704 639.507 43.136 640.275 45.696ZM619.539 48C620.179 48 620.691 47.36 620.563 46.72C619.795 41.728 614.035 37.76 606.739 37.76C599.955 37.76 593.683 41.728 592.787 46.72C592.659 47.36 593.171 48 593.811 48H619.539Z" fill="url(#paint0_linear_264_98)"/>
<defs>
<linearGradient id="paint0_linear_264_98" x1="377.608" y1="53.728" x2="-3.71191" y2="53.728" gradientUnits="userSpaceOnUse">
<stop stop-color="white"/>
<stop offset="0.153846" stop-color="#E0E8E3"/>
<stop offset="0.346154" stop-color="#58E3B5"/>
<stop offset="1" stop-color="#00FFAE"/>
</linearGradient>
</defs>
</svg>
